# xmcd CD database file
#
# Track frame offsets:
#	150
#	15013
#	27067
#	41022
#	53167
#	65112
#	78361
#	90812
#	102531
#	112220
#
# Disc length: 1697 seconds
#
# Revision: 0
# Processed by: cddbd v1.5.1PL2 Copyright (c) Steve Scherf et al.
# Submitted via: CDex 1.51
#
DISCID=73069f0a
DTITLE=Various Artist - Country Ladies - Vol 3
DYEAR=1900
DGENRE=Country
TTITLE0=Jeannie C. Riley - Harper Valley P. T. A.
TTITLE1=Donna Fargo - Funny Face
TTITLE2=Barbara Fairchild - Teddy Bear Song
TTITLE3=Susan Raye - L. A. International Airport
TTITLE4=Jody Miller - Queen Of The House
TTITLE5=Lynn Anderson - Top Of The World
TTITLE6=La Costa - Get On My Love Train
TTITLE7=Bonnie Guitar - Dark Moon
TTITLE8=Rose Maddox - Sing A Little Song Of Heartache
TTITLE9=Melba Montgomery - No Charge
EXTD=
EXTT0=
EXTT1=
EXTT2=
EXTT3=
EXTT4=
EXTT5=
EXTT6=
EXTT7=
EXTT8=
EXTT9=
PLAYORDER=
